<svg width="1392" height="702" viewBox="0 0 1392 702" fill="none" xmlns="http://www.w3.org/2000/svg">
<path d="M117.12 143.96H41.76V133.88H117.12V143.96ZM86.88 27.8L140.4 158.36C142.64 163.64 144.4 167.8 145.68 170.84C147.12 173.88 148.48 176.2 149.76 177.8C151.2 179.4 153.04 180.6 155.28 181.4C157.52 182.2 160.56 182.92 164.4 183.56V191C160.24 190.68 155.52 190.44 150.24 190.28C144.96 190.12 138.48 190.04 130.8 190.04C125.68 190.04 121.44 190.12 118.08 190.28C114.88 190.28 111.92 190.36 109.2 190.52C106.64 190.68 103.76 190.84 100.56 191V183.56C105.84 182.6 109.84 181.64 112.56 180.68C115.44 179.72 116.88 177.48 116.88 173.96C116.88 169.64 114.88 162.52 110.88 152.6L74.88 63.08L78.96 59.96L39.6 159.56C38.16 163.08 37.12 166.04 36.48 168.44C35.84 170.84 35.52 172.92 35.52 174.68C35.52 178.2 37.12 180.36 40.32 181.16C43.68 181.96 47.68 182.76 52.32 183.56V191C47.36 190.68 42.88 190.44 38.88 190.28C34.88 190.12 30.4 190.04 25.44 190.04C21.76 190.04 18 190.12 14.16 190.28C10.32 190.44 6.24 190.68 1.92 191V183.56C6.56 182.76 10 181.88 12.24 180.92C14.64 179.8 16.64 177.88 18.24 175.16C20 172.28 22 168.04 24.24 162.44L79.44 27.8H86.88ZM251.606 94.52H173.126V86.12L192.806 83.96L251.606 81.56V94.52ZM216.806 73.16L217.046 157.88C217.046 163.48 217.126 167.96 217.286 171.32C217.606 174.52 218.166 177 218.966 178.76C220.086 180.68 221.766 181.96 224.006 182.6C226.246 183.24 229.286 183.88 233.126 184.52V191C228.646 190.68 224.966 190.52 222.086 190.52C219.206 190.36 216.486 190.28 213.926 190.28C211.526 190.12 208.406 190.04 204.566 190.04C200.886 190.04 197.766 190.12 195.206 190.28C192.646 190.28 189.926 190.36 187.046 190.52C184.326 190.52 180.646 190.68 176.006 191V184.52C179.686 183.88 182.646 183.32 184.886 182.84C187.126 182.2 188.806 181 189.926 179.24C190.886 177.48 191.526 175 191.846 171.8C192.166 168.44 192.326 163.72 192.326 157.64V88.76C192.326 76.12 193.606 65.32 196.166 56.36C198.886 47.4 202.566 40.12 207.206 34.52C212.006 28.92 217.526 24.84 223.766 22.28C230.166 19.56 237.046 18.2 244.406 18.2C251.606 18.2 258.486 19.4 265.046 21.8L256.646 52.28H250.166L242.726 29C240.486 28.2 238.246 27.8 236.006 27.8C231.846 27.8 228.326 29.64 225.446 33.32C222.566 36.84 220.406 41.96 218.966 48.68C217.526 55.4 216.806 63.56 216.806 73.16ZM304.262 124.76L300.662 124.52C305.302 116.04 309.782 108.6 314.102 102.2C318.422 95.8 323.062 90.76 328.022 87.08C333.142 83.4 338.822 81.56 345.062 81.56C345.862 81.56 346.902 81.64 348.182 81.8C349.462 81.8 350.822 81.96 352.262 82.28L348.422 106.28C338.662 106.28 329.942 107.64 322.262 110.36C314.742 113.08 308.742 117.88 304.262 124.76ZM307.622 110.12V157.88C307.622 163.48 307.702 167.96 307.862 171.32C308.022 174.52 308.582 177 309.542 178.76C310.662 180.68 312.582 181.96 315.302 182.6C318.022 183.24 322.902 183.88 329.942 184.52V191C324.982 190.84 320.902 190.68 317.702 190.52C314.662 190.36 312.022 190.28 309.782 190.28C307.542 190.12 305.302 190.04 303.062 190.04C300.982 190.04 298.342 190.04 295.142 190.04C290.982 190.04 287.622 190.12 285.062 190.28C282.662 190.28 280.102 190.36 277.382 190.52C274.822 190.52 271.222 190.68 266.582 191V184.52C270.262 183.88 273.222 183.32 275.462 182.84C277.702 182.2 279.302 181 280.262 179.24C281.382 177.48 282.022 175 282.182 171.8C282.502 168.44 282.662 163.72 282.662 157.64V117.08C282.662 111.48 282.582 107.24 282.422 104.36C282.262 101.32 281.542 99.08 280.262 97.64C279.302 96.52 277.782 95.72 275.702 95.24C273.782 94.6 270.902 94.04 267.062 93.56V86.84C274.422 86.2 280.902 85.24 286.502 83.96C292.102 82.68 297.622 81.16 303.062 79.4L308.582 82.52C308.102 86.52 307.782 90.76 307.622 95.24C307.622 99.72 307.622 104.68 307.622 110.12ZM392.831 60.68C388.511 60.68 384.751 59.16 381.551 56.12C378.511 52.92 376.991 49.08 376.991 44.6C376.991 40.12 378.511 36.36 381.551 33.32C384.751 30.28 388.511 28.76 392.831 28.76C397.311 28.76 401.071 30.28 404.111 33.32C407.151 36.36 408.671 40.12 408.671 44.6C408.671 49.08 407.151 52.92 404.111 56.12C401.071 59.16 397.311 60.68 392.831 60.68ZM407.231 110.84V157.88C407.231 163.48 407.311 167.96 407.471 171.32C407.631 174.52 408.191 177 409.151 178.76C410.271 180.68 411.951 181.96 414.191 182.6C416.431 183.24 419.471 183.88 423.311 184.52V191C418.671 190.68 414.991 190.52 412.271 190.52C409.711 190.36 407.231 190.28 404.831 190.28C402.431 190.12 399.071 190.04 394.751 190.04C390.591 190.04 387.231 190.12 384.671 190.28C382.271 190.28 379.711 190.36 376.991 190.52C374.431 190.52 370.831 190.68 366.191 191V184.52C369.871 183.88 372.831 183.32 375.071 182.84C377.311 182.2 378.911 181 379.871 179.24C380.991 177.48 381.631 175 381.791 171.8C382.111 168.44 382.271 163.72 382.271 157.64V117.8C382.271 112.2 382.191 107.96 382.031 105.08C381.871 102.04 381.151 99.8 379.871 98.36C378.911 97.08 377.391 96.2 375.311 95.72C373.391 95.24 370.511 94.76 366.671 94.28V87.56C374.191 86.92 380.751 85.96 386.351 84.68C391.951 83.4 397.631 81.8 403.391 79.88L408.431 82.52C407.791 86.52 407.391 90.84 407.231 95.48C407.231 100.12 407.231 105.24 407.231 110.84ZM528.077 169.88C525.037 173.88 521.357 177.72 517.037 181.4C512.717 184.92 507.677 187.8 501.917 190.04C496.157 192.28 489.597 193.4 482.237 193.4C472.157 193.4 463.597 191.08 456.557 186.44C449.517 181.64 444.077 175.16 440.237 167C436.557 158.84 434.717 149.64 434.717 139.4C434.717 128.04 437.037 117.88 441.677 108.92C446.477 99.8 453.437 92.6 462.557 87.32C471.677 81.88 482.717 79.16 495.677 79.16C502.397 79.16 508.237 79.88 513.197 81.32C518.157 82.76 522.637 84.6 526.637 86.84L517.277 119.96H510.797L501.197 84.68L510.797 93.8C506.957 91.56 503.437 90.12 500.237 89.48C497.037 88.68 494.237 88.28 491.837 88.28C484.637 88.28 478.717 90.44 474.077 94.76C469.437 99.08 465.997 104.68 463.757 111.56C461.677 118.28 460.637 125.4 460.637 132.92C460.637 146.36 463.437 157.16 469.037 165.32C474.637 173.32 482.877 177.32 493.757 177.32C500.637 177.32 506.397 175.96 511.037 173.24C515.837 170.52 519.757 167.48 522.797 164.12L528.077 169.88ZM547.05 100.76C550.73 97.08 554.81 93.64 559.29 90.44C563.77 87.08 568.73 84.36 574.17 82.28C579.61 80.2 585.53 79.16 591.93 79.16C603.29 79.16 612.41 82.68 619.29 89.72C626.17 96.6 629.53 106.44 629.37 119.24L628.65 165.56C628.65 170.2 629.13 173.88 630.09 176.6C631.21 179.16 633.05 180.92 635.61 181.88C638.33 182.84 642.09 183.32 646.89 183.32V189.56C643.21 190.84 639.61 191.8 636.09 192.44C632.57 193.08 629.37 193.4 626.49 193.4C620.41 193.4 615.21 191.96 610.89 189.08C606.73 186.2 604.73 181.24 604.89 174.2L605.37 127.16C605.37 121.72 604.73 116.68 603.45 112.04C602.33 107.24 600.09 103.4 596.73 100.52C593.37 97.64 588.33 96.2 581.61 96.2C575.69 96.2 570.17 97.24 565.05 99.32C559.93 101.24 555.37 103.64 551.37 106.52L547.05 100.76ZM609.45 155.48L610.41 163.16C606.41 168.6 602.25 173.64 597.93 178.28C593.61 182.92 588.97 186.6 584.01 189.32C579.21 192.04 573.77 193.4 567.69 193.4C560.97 193.4 555.05 191.4 549.93 187.4C544.97 183.24 542.49 177.16 542.49 169.16C542.49 164.52 543.61 159.96 545.85 155.48C548.09 151 551.61 146.76 556.41 142.76C561.21 138.76 567.53 135.08 575.37 131.72C583.21 128.2 592.81 125.24 604.17 122.84L619.05 119.72L616.89 129.56L606.09 131.48C598.25 133.08 591.29 135.32 585.21 138.2C579.29 141.08 574.73 144.52 571.53 148.52C568.49 152.36 566.97 156.68 566.97 161.48C566.97 166.28 568.33 169.96 571.05 172.52C573.93 174.92 577.37 176.12 581.37 176.12C585.53 176.12 589.29 175.08 592.65 173C596.17 170.76 599.29 168.04 602.01 164.84C604.73 161.48 607.21 158.36 609.45 155.48ZM697.106 110.84V157.88C697.106 163.48 697.186 167.96 697.346 171.32C697.506 174.52 698.066 177 699.026 178.76C700.146 180.68 701.826 181.96 704.066 182.6C706.306 183.24 709.346 183.88 713.186 184.52V191C708.546 190.68 704.866 190.52 702.146 190.52C699.586 190.36 697.106 190.28 694.706 190.28C692.306 190.12 688.946 190.04 684.626 190.04C680.466 190.04 677.106 190.12 674.546 190.28C672.146 190.28 669.586 190.36 666.866 190.52C664.306 190.52 660.706 190.68 656.066 191V184.52C659.746 183.88 662.706 183.32 664.946 182.84C667.186 182.2 668.786 181 669.746 179.24C670.866 177.48 671.506 175 671.666 171.8C671.986 168.44 672.146 163.72 672.146 157.64V117.8C672.146 112.2 672.066 107.96 671.906 105.08C671.746 102.04 671.026 99.8 669.746 98.36C668.786 97.08 667.266 96.2 665.186 95.72C663.266 95.24 660.386 94.76 656.546 94.28V87.56C664.066 86.92 670.626 85.96 676.226 84.68C681.986 83.4 687.666 81.8 693.266 79.88L698.306 82.52C697.666 86.52 697.266 90.84 697.106 95.48C697.106 100.12 697.106 105.24 697.106 110.84ZM774.386 121.4V157.88C774.386 163.48 774.466 167.96 774.626 171.32C774.946 174.52 775.586 177 776.546 178.76C777.666 180.68 779.346 181.96 781.586 182.6C783.826 183.24 786.866 183.88 790.706 184.52V191C786.066 190.68 782.386 190.52 779.666 190.52C777.106 190.36 774.546 190.28 771.986 190.28C769.586 190.12 766.306 190.04 762.146 190.04C757.986 190.04 754.626 190.12 752.066 190.28C749.506 190.28 746.866 190.36 744.146 190.52C741.586 190.52 738.066 190.68 733.586 191V184.52C737.106 183.88 739.986 183.32 742.226 182.84C744.626 182.2 746.306 181 747.266 179.24C748.386 177.48 749.026 175 749.186 171.8C749.506 168.44 749.666 163.72 749.666 157.64V132.2C749.666 123.88 748.626 117.24 746.546 112.28C744.626 107.16 741.746 103.48 737.906 101.24C734.226 99 729.586 97.88 723.986 97.88C716.786 97.88 710.706 99.16 705.746 101.72C700.786 104.28 696.386 107.32 692.546 110.84L688.946 108.68C693.266 103.56 697.666 98.76 702.146 94.28C706.786 89.8 711.826 86.2 717.266 83.48C722.866 80.6 729.266 79.16 736.466 79.16C743.986 79.16 750.546 80.76 756.146 83.96C761.906 87.16 766.386 91.88 769.586 98.12C772.786 104.36 774.386 112.12 774.386 121.4ZM38.4 344.12V333.56H70.32C76.56 333.56 81.44 333.32 84.96 332.84C88.48 332.2 91.12 331.08 92.88 329.48C94.8 327.72 96.24 325.4 97.2 322.52C98.16 319.48 99.2 315.64 100.32 311H108V366.44H100.32C99.2 361.96 98.16 358.28 97.2 355.4C96.24 352.36 94.8 350.04 92.88 348.44C91.12 346.84 88.48 345.72 84.96 345.08C81.44 344.44 76.56 344.12 70.32 344.12H38.4ZM9.36 255.8H128.16L130.56 298.76H122.88L106.56 265.64H54.24V385.16C54.24 390.28 54.32 394.52 54.48 397.88C54.8 401.08 55.36 403.48 56.16 405.08C57.44 407.16 59.28 408.6 61.68 409.4C64.08 410.2 67.76 410.92 72.72 411.56V419C67.44 418.68 63.2 418.52 60 418.52C56.8 418.36 53.84 418.28 51.12 418.28C48.4 418.12 44.88 418.04 40.56 418.04C36.88 418.04 33.68 418.12 30.96 418.28C28.24 418.28 25.28 418.36 22.08 418.52C18.88 418.52 14.64 418.68 9.36 419V411.56C14.16 410.92 17.84 410.28 20.4 409.64C22.96 408.84 24.72 407.48 25.68 405.56C26.64 403.8 27.2 401.32 27.36 398.12C27.68 394.92 27.84 390.52 27.84 384.92V293.72C27.84 286.52 27.68 281.08 27.36 277.4C27.2 273.56 26.4 270.6 24.96 268.52C23.84 266.76 22.08 265.56 19.68 264.92C17.28 264.28 13.84 263.72 9.36 263.24V255.8ZM138.769 328.76C142.449 325.08 146.529 321.64 151.009 318.44C155.489 315.08 160.449 312.36 165.889 310.28C171.329 308.2 177.249 307.16 183.649 307.16C195.009 307.16 204.129 310.68 211.009 317.72C217.889 324.6 221.249 334.44 221.089 347.24L220.369 393.56C220.369 398.2 220.849 401.88 221.809 404.6C222.929 407.16 224.769 408.92 227.329 409.88C230.049 410.84 233.809 411.32 238.609 411.32V417.56C234.929 418.84 231.329 419.8 227.809 420.44C224.289 421.08 221.089 421.4 218.209 421.4C212.129 421.4 206.929 419.96 202.609 417.08C198.449 414.2 196.449 409.24 196.609 402.2L197.089 355.16C197.089 349.72 196.449 344.68 195.169 340.04C194.049 335.24 191.809 331.4 188.449 328.52C185.089 325.64 180.049 324.2 173.329 324.2C167.409 324.2 161.889 325.24 156.769 327.32C151.649 329.24 147.089 331.64 143.089 334.52L138.769 328.76ZM201.169 383.48L202.129 391.16C198.129 396.6 193.969 401.64 189.649 406.28C185.329 410.92 180.689 414.6 175.729 417.32C170.929 420.04 165.489 421.4 159.409 421.4C152.689 421.4 146.769 419.4 141.649 415.4C136.689 411.24 134.209 405.16 134.209 397.16C134.209 392.52 135.329 387.96 137.569 383.48C139.809 379 143.329 374.76 148.129 370.76C152.929 366.76 159.249 363.08 167.089 359.72C174.929 356.2 184.529 353.24 195.889 350.84L210.769 347.72L208.609 357.56L197.809 359.48C189.969 361.08 183.009 363.32 176.929 366.2C171.009 369.08 166.449 372.52 163.249 376.52C160.209 380.36 158.689 384.68 158.689 389.48C158.689 394.28 160.049 397.96 162.769 400.52C165.649 402.92 169.089 404.12 173.089 404.12C177.249 404.12 181.009 403.08 184.369 401C187.889 398.76 191.009 396.04 193.729 392.84C196.449 389.48 198.929 386.36 201.169 383.48ZM344.505 397.88C341.465 401.88 337.785 405.72 333.465 409.4C329.145 412.92 324.105 415.8 318.345 418.04C312.585 420.28 306.025 421.4 298.665 421.4C288.585 421.4 280.025 419.08 272.985 414.44C265.945 409.64 260.505 403.16 256.665 395C252.985 386.84 251.145 377.64 251.145 367.4C251.145 356.04 253.465 345.88 258.105 336.92C262.905 327.8 269.865 320.6 278.985 315.32C288.105 309.88 299.145 307.16 312.105 307.16C318.825 307.16 324.665 307.88 329.625 309.32C334.585 310.76 339.065 312.6 343.065 314.84L333.705 347.96H327.225L317.625 312.68L327.225 321.8C323.385 319.56 319.865 318.12 316.665 317.48C313.465 316.68 310.665 316.28 308.265 316.28C301.065 316.28 295.145 318.44 290.505 322.76C285.865 327.08 282.425 332.68 280.185 339.56C278.105 346.28 277.065 353.4 277.065 360.92C277.065 374.36 279.865 385.16 285.465 393.32C291.065 401.32 299.305 405.32 310.185 405.32C317.065 405.32 322.825 403.96 327.465 401.24C332.265 398.52 336.185 395.48 339.225 392.12L344.505 397.88ZM457.558 398.84C454.518 402.36 450.758 405.88 446.278 409.4C441.798 412.76 436.598 415.56 430.678 417.8C424.758 420.04 418.038 421.16 410.518 421.16C399.638 421.16 390.438 418.84 382.918 414.2C375.558 409.4 369.958 402.92 366.118 394.76C362.438 386.6 360.598 377.64 360.598 367.88C360.598 356.52 362.838 346.28 367.318 337.16C371.958 328.04 378.438 320.76 386.758 315.32C395.238 309.88 405.158 307.16 416.518 307.16C429.638 307.16 439.798 311.16 446.998 319.16C454.358 327.16 458.038 337.72 458.038 350.84V361.4H379.798L380.758 353.48L433.318 351.56C433.318 345.16 432.598 339.32 431.158 334.04C429.878 328.6 427.638 324.28 424.438 321.08C421.238 317.72 417.078 316.04 411.958 316.04C406.358 316.04 401.638 318.2 397.798 322.52C394.118 326.68 391.238 332.2 389.158 339.08C387.238 345.96 386.278 353.56 386.278 361.88C386.278 374.84 389.158 385.24 394.918 393.08C400.838 400.92 409.878 404.84 422.038 404.84C428.918 404.84 434.838 403.72 439.798 401.48C444.758 399.08 448.998 396.2 452.518 392.84L457.558 398.84ZM473.985 451.64C481.185 446.36 486.785 440.84 490.785 435.08C494.785 429.32 496.785 423.08 496.785 416.36L497.505 420.2C495.425 421 493.345 421.4 491.265 421.4C486.465 421.4 482.545 419.8 479.505 416.6C476.625 413.4 475.185 409.88 475.185 406.04C475.185 401.88 476.545 398.04 479.265 394.52C481.985 391 486.145 389.24 491.745 389.24C496.705 389.24 501.025 391.16 504.705 395C508.545 398.68 510.465 403.88 510.465 410.6C510.465 417.32 509.025 423.56 506.145 429.32C503.265 435.24 499.425 440.6 494.625 445.4C489.825 450.36 484.465 454.84 478.545 458.84L473.985 451.64Z" fill="#E30513"/>
<path d="M744.15 381.031V406.812C726.963 416.188 707.119 420.875 684.619 420.875C666.338 420.875 650.83 417.203 638.095 409.859C625.361 402.516 615.283 392.398 607.861 379.508C600.439 366.617 596.728 352.672 596.728 337.672C596.728 313.844 605.205 293.805 622.158 277.555C639.189 261.305 660.166 253.18 685.088 253.18C702.275 253.18 721.377 257.672 742.392 266.656V291.852C723.252 280.914 704.541 275.445 686.259 275.445C667.509 275.445 651.923 281.383 639.502 293.258C627.158 305.055 620.986 319.859 620.986 337.672C620.986 355.641 627.08 370.406 639.267 381.969C651.455 393.531 667.041 399.312 686.025 399.312C705.869 399.312 725.244 393.219 744.15 381.031ZM819.211 310.953C835.617 310.953 849.25 316.266 860.109 326.891C870.969 337.438 876.398 350.719 876.398 366.734C876.398 382.281 870.891 395.211 859.875 405.523C848.859 415.758 834.992 420.875 818.273 420.875C802.102 420.875 788.586 415.68 777.727 405.289C766.867 394.82 761.438 381.773 761.438 366.148C761.438 350.367 766.906 337.242 777.844 326.773C788.859 316.227 802.648 310.953 819.211 310.953ZM818.039 330.172C807.805 330.172 799.406 333.531 792.844 340.25C786.281 346.969 783 355.523 783 365.914C783 376.227 786.359 384.664 793.078 391.227C799.797 397.711 808.43 400.953 818.977 400.953C829.445 400.953 838 397.672 844.641 391.109C851.359 384.469 854.719 375.992 854.719 365.68C854.719 355.445 851.242 346.969 844.289 340.25C837.336 333.531 828.586 330.172 818.039 330.172ZM900.539 255.289H921.867V419H900.539V255.289ZM1004.37 310.953C1020.77 310.953 1034.41 316.266 1045.27 326.891C1056.13 337.438 1061.55 350.719 1061.55 366.734C1061.55 382.281 1056.05 395.211 1045.03 405.523C1034.02 415.758 1020.15 420.875 1003.43 420.875C987.258 420.875 973.742 415.68 962.883 405.289C952.023 394.82 946.594 381.773 946.594 366.148C946.594 350.367 952.063 337.242 963 326.773C974.016 316.227 987.805 310.953 1004.37 310.953ZM1003.2 330.172C992.961 330.172 984.563 333.531 978 340.25C971.438 346.969 968.156 355.523 968.156 365.914C968.156 376.227 971.516 384.664 978.234 391.227C984.953 397.711 993.586 400.953 1004.13 400.953C1014.6 400.953 1023.16 397.672 1029.8 391.109C1036.52 384.469 1039.88 375.992 1039.88 365.68C1039.88 355.445 1036.4 346.969 1029.45 340.25C1022.49 333.531 1013.74 330.172 1003.2 330.172ZM1104.15 311.188V324.898C1113.69 314.352 1124.51 309.078 1136.62 309.078C1143.33 309.078 1149.58 310.836 1155.37 314.352C1161.15 317.789 1165.52 322.555 1168.49 328.648C1171.54 334.664 1173.06 344.234 1173.06 357.359V419H1151.73V357.594C1151.73 346.578 1150.05 338.727 1146.69 334.039C1143.33 329.273 1137.71 326.891 1129.82 326.891C1119.74 326.891 1111.19 331.93 1104.15 342.008V419H1082.36V311.188H1104.15ZM1211.44 265.836C1214.96 265.836 1217.97 267.047 1220.47 269.469C1222.97 271.891 1224.22 274.859 1224.22 278.375C1224.22 281.812 1222.97 284.781 1220.47 287.281C1217.97 289.781 1214.96 291.031 1211.44 291.031C1208.16 291.031 1205.27 289.781 1202.77 287.281C1200.27 284.703 1199.02 281.734 1199.02 278.375C1199.02 275.094 1200.27 272.203 1202.77 269.703C1205.27 267.125 1208.16 265.836 1211.44 265.836ZM1200.9 311.188H1222.22V419H1200.9V311.188ZM1323.3 354.195V400.016C1323.3 403.688 1324.55 405.523 1327.05 405.523C1329.62 405.523 1333.65 403.609 1339.12 399.781V412.789C1334.27 415.914 1330.37 418.023 1327.4 419.117C1324.51 420.289 1321.46 420.875 1318.26 420.875C1309.12 420.875 1303.73 417.281 1302.08 410.094C1293.02 417.125 1283.37 420.641 1273.14 420.641C1265.64 420.641 1259.39 418.18 1254.39 413.258C1249.39 408.258 1246.89 402.008 1246.89 394.508C1246.89 387.711 1249.31 381.656 1254.15 376.344C1259.08 370.953 1266.03 366.695 1275.01 363.57L1302.32 354.195V348.453C1302.32 335.484 1295.83 329 1282.87 329C1271.23 329 1259.9 335.016 1248.88 347.047V323.727C1257.16 313.961 1269.08 309.078 1284.62 309.078C1296.26 309.078 1305.6 312.125 1312.63 318.219C1314.98 320.172 1317.08 322.789 1318.96 326.07C1320.83 329.273 1322.01 332.516 1322.48 335.797C1323.02 339 1323.3 345.133 1323.3 354.195ZM1302.32 397.672V365.68L1288.02 371.188C1280.76 374.078 1275.6 377.008 1272.55 379.977C1269.58 382.867 1268.1 386.5 1268.1 390.875C1268.1 395.328 1269.51 398.961 1272.32 401.773C1275.21 404.586 1278.92 405.992 1283.45 405.992C1290.25 405.992 1296.54 403.219 1302.32 397.672ZM1354.85 255.289H1376.18V419H1354.85V255.289ZM706.702 483.055H843.459V503.914H786.389V647H762.834V503.914H706.702V483.055ZM875.958 538.953C892.364 538.953 905.997 544.266 916.856 554.891C927.716 565.438 933.145 578.719 933.145 594.734C933.145 610.281 927.637 623.211 916.622 633.523C905.606 643.758 891.739 648.875 875.02 648.875C858.848 648.875 845.333 643.68 834.473 633.289C823.614 622.82 818.184 609.773 818.184 594.148C818.184 578.367 823.653 565.242 834.591 554.773C845.606 544.227 859.395 538.953 875.958 538.953ZM874.786 558.172C864.552 558.172 856.153 561.531 849.591 568.25C843.028 574.969 839.747 583.523 839.747 593.914C839.747 604.227 843.106 612.664 849.825 619.227C856.544 625.711 865.177 628.953 875.723 628.953C886.192 628.953 894.747 625.672 901.387 619.109C908.106 612.469 911.466 603.992 911.466 593.68C911.466 583.445 907.989 574.969 901.036 568.25C894.083 561.531 885.333 558.172 874.786 558.172ZM975.745 539.188V552.898C985.277 542.352 996.097 537.078 1008.21 537.078C1014.92 537.078 1021.17 538.836 1026.96 542.352C1032.74 545.789 1037.11 550.555 1040.08 556.648C1043.13 562.664 1044.65 572.234 1044.65 585.359V647H1023.32V585.594C1023.32 574.578 1021.64 566.727 1018.28 562.039C1014.92 557.273 1009.3 554.891 1001.41 554.891C991.331 554.891 982.777 559.93 975.745 570.008V647H953.948V539.188H975.745ZM1068.91 576.453C1068.91 564.969 1073.09 555.906 1081.45 549.266C1089.89 542.547 1101.37 539.188 1115.9 539.188H1160.32V555.828H1138.52C1142.74 560.125 1145.67 564.031 1147.31 567.547C1148.95 571.062 1149.77 575.086 1149.77 579.617C1149.77 585.242 1148.17 590.789 1144.96 596.258C1141.76 601.648 1137.62 605.789 1132.54 608.68C1127.54 611.57 1119.3 613.875 1107.82 615.594C1099.77 616.766 1095.75 619.539 1095.75 623.914C1095.75 626.414 1097.23 628.484 1100.2 630.125C1103.25 631.688 1108.71 633.328 1116.6 635.047C1129.81 637.938 1138.28 640.203 1142.03 641.844C1145.86 643.484 1149.3 645.828 1152.35 648.875C1157.5 654.031 1160.08 660.516 1160.08 668.328C1160.08 678.562 1155.51 686.727 1146.37 692.82C1137.31 698.914 1125.16 701.961 1109.92 701.961C1094.53 701.961 1082.23 698.875 1073.01 692.703C1063.87 686.609 1059.3 678.406 1059.3 668.094C1059.3 653.484 1068.32 644.07 1086.37 639.852C1079.18 635.242 1075.59 630.672 1075.59 626.141C1075.59 622.703 1077.11 619.578 1080.16 616.766C1083.28 613.953 1087.46 611.883 1092.7 610.555C1076.84 603.523 1068.91 592.156 1068.91 576.453ZM1108.99 557.703C1103.21 557.703 1098.28 559.656 1094.22 563.562C1090.16 567.469 1088.13 572.156 1088.13 577.625C1088.13 583.172 1090.12 587.781 1094.1 591.453C1098.09 595.047 1103.13 596.844 1109.22 596.844C1115.24 596.844 1120.24 595.008 1124.22 591.336C1128.28 587.586 1130.32 582.938 1130.32 577.391C1130.32 571.766 1128.28 567.078 1124.22 563.328C1120.16 559.578 1115.08 557.703 1108.99 557.703ZM1103.95 652.039C1096.76 652.039 1090.86 653.562 1086.25 656.609C1081.72 659.656 1079.46 663.562 1079.46 668.328C1079.46 679.422 1089.46 684.969 1109.46 684.969C1118.91 684.969 1126.21 683.562 1131.37 680.75C1136.6 678.016 1139.22 674.109 1139.22 669.031C1139.22 664.031 1135.94 659.93 1129.38 656.727C1122.82 653.602 1114.34 652.039 1103.95 652.039ZM1247.91 647V633.289C1243.38 638.211 1238.18 642.039 1232.32 644.773C1226.54 647.508 1220.76 648.875 1214.98 648.875C1208.18 648.875 1201.9 647.195 1196.11 643.836C1190.41 640.398 1186.07 635.789 1183.11 630.008C1180.22 624.148 1178.77 614.461 1178.77 600.945V539.188H1200.1V600.711C1200.1 612.039 1201.7 619.969 1204.9 624.5C1208.18 628.953 1213.89 631.18 1222.01 631.18C1232.17 631.18 1240.8 626.219 1247.91 616.297V539.188H1269.24V647H1247.91ZM1383.91 594.969H1308.09C1308.64 605.281 1312.08 613.484 1318.41 619.578C1324.81 625.672 1333.05 628.719 1343.13 628.719C1357.2 628.719 1370.16 624.344 1382.04 615.594V636.453C1375.48 640.828 1368.95 643.953 1362.47 645.828C1356.06 647.703 1348.52 648.641 1339.85 648.641C1327.98 648.641 1318.37 646.18 1311.02 641.258C1303.68 636.336 1297.78 629.734 1293.33 621.453C1288.95 613.094 1286.77 603.445 1286.77 592.508C1286.77 576.102 1291.41 562.781 1300.71 552.547C1310.01 542.234 1322.08 537.078 1336.92 537.078C1351.22 537.078 1362.62 542.078 1371.14 552.078C1379.66 562.078 1383.91 575.477 1383.91 592.273V594.969ZM1308.56 582.195H1362.82C1362.27 573.68 1359.73 567.117 1355.2 562.508C1350.67 557.898 1344.58 555.594 1336.92 555.594C1329.27 555.594 1322.98 557.898 1318.05 562.508C1313.21 567.117 1310.05 573.68 1308.56 582.195Z" fill="#E30513"/>
</svg>
